PathFileType	4	(X/Y/Z)	C:\Users\WrightLab\Desktop\Jo\P5V24.trc
DataRate	CameraRate	NumFrames	NumMarkers	Units	OrigDataRate	OrigDataStartFrame	OrigNumFrames
100.00	100.00	      7	19	mm	100.00	871	      1161
Frame#	Time	Headset_Front			Headset_Back			Headset_Left			Headset_Right			Left_Shoulder			Right_Shoulder			Sternum			C7			Left Elbow			Right Elbow			Left Wrist			Right Wrist			Left ASIS			Right ASIS			S2			Left Knee			Right Knee			Left Ankle			Right Ankle			
		X1	Y1	Z1	X2	Y2	Z2	X3	Y3	Z3	X4	Y4	Z4	X5	Y5	Z5	X6	Y6	Z6	X7	Y7	Z7	X8	Y8	Z8	X9	Y9	Z9	X10	Y10	Z10	X11	Y11	Z11	X12	Y12	Z12	X13	Y13	Z13	X14	Y14	Z14	X15	Y15	Z15	X16	Y16	Z16	X17	Y17	Z17	X18	Y18	Z18	X19	Y19	Z19	

871	8.700	-83.34068	1455.37524	-98.06274							-201.92799	1545.47266	-67.11436	-84.32834	1500.80762	-415.18552	-358.69348	1461.60657	-135.14005	-61.11610	1609.38794	-240.98662	-327.56113	1535.54248	-357.30347	-67.69811	1320.96179	-299.69101	-329.38828	1208.45313	-36.57235	-40.22779	1233.21326	-479.08997	-95.59820	1155.58508	26.34748	-81.41833	934.05725	-280.91571	-314.48734	950.27808	-127.81394	-324.61267	984.68665	-429.35733	-76.51965	502.43918	-302.02493	-404.58670	502.64697	-125.38526	-143.88486	87.61828	-382.71826	-437.39841	99.02480	-272.64880	
872	8.710	-81.21701	1455.38416	-99.70061							-199.40013	1546.75427	-68.81709	-82.51891	1500.48584	-415.25937	-355.74362	1462.80090	-136.29865	-58.76376	1609.00330	-241.65570	-326.00934	1535.56042	-357.70190	-65.71029	1320.83484	-301.00009	-326.81116	1209.01892	-37.10049	-39.76218	1232.53796	-478.04672	-93.79346	1156.00281	25.45981	-79.64166	933.69458	-281.75787	-313.48343	952.17633	-117.70789	-323.38272	984.57007	-429.81335	-73.90652	502.31708	-303.05304	-403.17996	502.72916	-126.83850	-143.70590	87.25840	-383.04034	-437.07462	99.50047	-272.62668	
873	8.720	-79.76353	1455.33508	-100.54877							-197.01016	1545.99817	-69.06569	-80.53722	1500.40784	-416.39139	-354.70419	1462.32813	-137.31592	-56.54004	1608.74438	-242.84428	-323.67062	1535.46753	-359.21356	-63.61779	1319.97449	-301.72476	-324.54037	1209.94238	-38.50017	-37.74736	1232.52441	-481.13736	-91.15891	1155.88770	24.59271	-78.39340	933.61023	-282.44635	-310.52432	953.03607	-120.19013	-322.42484	984.50122	-430.86389	-70.68482	502.45279	-303.19662	-400.33136	503.31290	-126.70303	-143.84152	87.10577	-383.53098	-437.01282	99.59691	-272.53964	
874	8.730	-77.17389	1455.50659	-100.68771							-194.88234	1546.01184	-70.26904	-78.87793	1500.05286	-417.27225	-351.48773	1462.05762	-137.56744	-54.44849	1608.75366	-244.05457	-321.61771	1535.27734	-359.69797	-61.42871	1320.04590	-302.61676	-322.61145	1210.29761	-38.79552	-36.04322	1232.38208	-482.38168	-88.46204	1155.62708	23.85760	-77.67944	933.12024	-283.30011	-309.57230	953.15161	-120.10827	-321.54391	984.39844	-431.77191	-68.74280	502.23001	-303.84946	-399.13889	503.24088	-127.70616	-143.88786	86.99609	-383.70697	-436.94772	99.70966	-272.45285	
875	8.740	-75.78291	1455.25073	-101.17121							-192.35072	1547.01587	-70.49461	-77.06495	1499.83228	-418.98792	-350.35339	1463.94299	-139.38594	-52.33009	1608.16235	-245.91953	-319.75629	1535.36475	-360.46558	-59.94027	1320.33911	-303.01889	-319.94537	1210.59302	-39.06544	-35.17519	1232.17834	-482.44446	-86.77831	1155.64429	23.35717	-77.01028	932.45135	-283.84094	-308.08487	953.35620	-120.89558	-320.34348	984.06403	-431.55106	-65.89875	501.77988	-303.96237	-397.62167	503.35785	-128.28094	-143.81468	87.01954	-383.88071	-436.87366	99.82507	-272.34793	
876	8.750	-73.08086	1455.54712	-102.50050							-190.69579	1546.77783	-71.74804	-74.91486	1499.35986	-419.92862	-346.58749	1463.79578	-140.05974	-50.22296	1608.06519	-246.54848	-317.93112	1535.64807	-360.79926	-58.06425	1319.46265	-304.24649	-317.71790	1210.60291	-39.46675	-33.89537	1231.58862	-482.66000	-83.89551	1155.21033	22.19811	-76.10980	932.33813	-284.38773	-306.71146	953.84143	-121.97618	-319.36310	984.37799	-433.16110	-63.50418	502.19537	-303.72412	-396.04016	504.18436	-129.35843	-144.09114	86.71965	-384.03827	-436.79764	99.94093	-272.25830	
877	8.760	-71.86174	1455.71155	-102.81960							-188.90179	1546.15027	-72.10300	-73.45422	1499.44812	-421.26239	-345.53888	1463.54919	-139.68423	-48.21532	1607.86255	-247.33775	-315.74707	1535.55811	-361.66144	-56.02760	1319.37488	-305.26413	-315.45560	1210.70276	-39.14000	-31.27489	1231.46729	-484.69916	-82.83353	1155.36633	21.85050	-75.09808	932.45020	-285.06683	-305.84216	954.37762	-122.37365	-318.22485	984.23383	-433.34814	-61.58956	502.32239	-303.44775	-394.85562	504.28680	-130.07063	-144.06451	86.51957	-384.14377	-436.66043	100.12355	-271.89395	
